# xmcd
#
# Track frame offsets: 
#        150
#        25208
#        51013
#        76850
#        99673
#        121773
#        138678
#        159575
#        180143
#        196520
#
# Disc length: 2936 seconds
#
# Revision: 0
# Processed by: cddbd v1.5.2PL0 Copyright (c) Steve Scherf et al.
# Submitted via: ExactAudioCopy v1.0b3
#
DISCID=700b760a
DTITLE=Tuan Vu, My Huyen - Chieu Tay Do
DYEAR=1993
DGENRE=
TTITLE0=My Huyen - Neu ai co hoi
TTITLE1=Noi buon Chau Pha
TTITLE2=Tuan Vu - Hai vi sao lac
TTITLE3=My Huyen - Le bong
TTITLE4=Tuan Vu - Noi buon sa mac
TTITLE5=Tuan Vu - Chieu Tay do
TTITLE6=My Huyen - Buom trang
TTITLE7=Tinh bo vo
TTITLE8=Tuan Vu - Bien tinh
TTITLE9=My Huyen - Dinh menh
EXTD=
EXTT0=
EXTT1=
EXTT2=
EXTT3=
EXTT4=
EXTT5=
EXTT6=
EXTT7=
EXTT8=
EXTT9=
PLAYORDER=
